<?xml version="1.0" encoding="utf-8"?>
<!-- Generator: SketchAPI 2022.10.24.12 https://api.sketch.io -->
<svg version="1.1" xmlns="http://www.w3.org/2000/svg" xmlns:xlink="http://www.w3.org/1999/xlink" xmlns:sketchjs="https://sketch.io/dtd/" width="64" height="96" viewBox="0 0 64 96">
<path style="fill: none; stroke: #000000; mix-blend-mode: source-over; stroke-dasharray: none; stroke-dashoffset: 0; stroke-linecap: round; stroke-linejoin: round; stroke-miterlimit: 4; stroke-opacity: 1; stroke-width: 2;" sketchjs:tool="pencil" d="M0.22 4.07 C0.22 4.07 0.22 4.07 0.22 4.07 0.22 4.07 0.214 4.082 0.21 4.1 0.186 4.208 0.11 4.876 0.08 5.29 0.048 5.74 0.04 6.187 0.03 6.7 0.018 7.315 -0.026 8.039 0.02 8.73 0.069 9.458 0.233 10.361 0.33 10.96 0.396 11.367 0.427 11.593 0.52 11.98 0.646 12.506 0.893 13.247 1.06 13.82 1.206 14.321 1.317 14.731 1.47 15.23 1.645 15.801 1.913 16.487 2.06 17.06 2.187 17.554 2.248 18.01 2.33 18.46 2.407 18.878 2.452 19.238 2.54 19.67 2.642 20.174 2.843 20.795 2.92 21.3 2.986 21.728 2.99 22.083 3.01 22.5 3.032 22.953 3.009 23.465 3.04 23.92 3.069 24.343 3.148 24.734 3.18 25.14 3.211 25.544 3.22 25.987 3.23 26.35 3.238 26.647 3.234 26.981 3.24 27.16 3.243 27.249 3.248 27.268 3.25 27.36 3.255 27.567 3.25 28.163 3.25 28.37 3.25 28.462 3.25 28.485 3.25 28.57 3.25 28.718 3.25 29.032 3.25 29.18 3.25 29.265 3.241 29.312 3.25 29.38 3.26 29.452 3.275 29.537 3.31 29.6 3.343 29.66 3.369 29.703 3.45 29.75 3.651 29.868 4.261 29.983 4.69 30.05 5.14 30.12 5.55 30.127 6.09 30.15 6.829 30.182 7.812 30.183 8.72 30.19 9.697 30.197 10.731 30.163 11.76 30.19 12.823 30.218 13.889 30.273 15 30.36 16.182 30.452 17.488 30.67 18.65 30.74 19.706 30.804 20.771 30.78 21.68 30.79 22.424 30.798 23.12 30.799 23.71 30.8 24.165 30.801 24.585 30.8 24.92 30.8 25.158 30.8 25.292 30.8 25.53 30.8 25.867 30.8 26.315 30.8 26.75 30.8 27.252 30.8 27.923 30.8 28.37 30.8 28.686 30.8 28.956 30.822 29.18 30.8 29.341 30.784 29.454 30.742 29.59 30.72 29.724 30.699 29.876 30.697 29.99 30.67 30.078 30.649 30.132 30.613 30.22 30.59 30.332 30.561 30.505 30.592 30.61 30.52 30.728 30.44 30.799 30.282 30.87 30.1 30.979 29.822 31.038 29.427 31.09 28.97 31.169 28.28 31.161 27.27 31.18 26.35 31.201 25.327 31.225 24.19 31.2 23.11 31.175 22.027 31.16 20.861 31.03 19.86 30.916 18.984 30.669 18.329 30.52 17.42 30.334 16.288 30.142 14.715 30.06 13.58 29.995 12.682 30.068 12.087 30 11.16 29.907 9.897 29.585 7.964 29.45 6.7 29.35 5.769 29.306 4.971 29.23 4.27 29.172 3.733 29.116 3.258 29.05 2.85 29 2.538 28.926 2.254 28.89 2.03 28.865 1.877 28.865 1.772 28.84 1.64 28.813 1.499 28.757 1.325 28.73 1.21 28.712 1.134 28.703 1.101 28.69 1.02 28.668 0.876 28.663 0.601 28.63 0.42 28.602 0.266 28.52 0 28.52 0 " transform="matrix(1,0,0,1,16.388573552767376,-4.069823247960471)"/>
<path style="fill: none; stroke: #000000; mix-blend-mode: source-over; stroke-dasharray: none; stroke-dashoffset: 0; stroke-linecap: round; stroke-linejoin: round; stroke-miterlimit: 4; stroke-opacity: 1; stroke-width: 2;" sketchjs:tool="pencil" d="M29.57 0 C29.57 0 29.57 0 29.57 0 29.57 0 29.663 0.172 29.7 0.27 29.741 0.38 29.76 0.486 29.8 0.63 29.859 0.846 29.973 1.218 30.02 1.44 30.052 1.592 30.051 1.699 30.08 1.83 30.11 1.968 30.169 2.137 30.2 2.25 30.221 2.326 30.235 2.358 30.25 2.44 30.276 2.583 30.294 2.86 30.31 3.04 30.323 3.187 30.358 3.356 30.34 3.44 30.331 3.483 30.322 3.498 30.29 3.53 30.223 3.596 30.057 3.69 29.89 3.75 29.648 3.837 29.23 3.865 28.95 3.93 28.721 3.983 28.563 4.058 28.33 4.1 28.04 4.152 27.672 4.168 27.34 4.19 27.005 4.212 26.648 4.222 26.33 4.23 26.045 4.237 25.818 4.237 25.52 4.24 25.155 4.244 24.758 4.248 24.3 4.25 23.711 4.252 22.998 4.25 22.28 4.25 21.459 4.25 20.624 4.25 19.64 4.25 18.391 4.25 16.732 4.25 15.39 4.25 14.183 4.25 12.997 4.25 11.95 4.25 11.07 4.25 10.346 4.25 9.52 4.25 8.661 4.25 7.633 4.25 6.89 4.25 6.344 4.25 5.845 4.25 5.47 4.25 5.224 4.25 5.118 4.25 4.86 4.25 4.415 4.25 3.609 4.25 3.04 4.25 2.537 4.25 1.995 4.25 1.62 4.25 1.374 4.25 1.192 4.25 1.01 4.25 0.863 4.25 0.757 4.25 0.61 4.25 0.428 4.25 0 4.25 0 4.25 " transform="matrix(1,0,0,1,-8.50546780072904,27.33900364520049)"/>
<path style="fill: none; stroke: #000000; mix-blend-mode: source-over; stroke-dasharray: none; stroke-dashoffset: 0; stroke-linecap: round; stroke-linejoin: round; stroke-miterlimit: 4; stroke-opacity: 1; stroke-width: 2;" sketchjs:tool="pencil" d="M0 0 C0 0 0 0 0 0 0 0 0.073 0.568 0.12 0.82 0.161 1.039 0.207 1.246 0.26 1.43 0.305 1.587 0.356 1.705 0.41 1.86 0.474 2.043 0.58 2.315 0.62 2.46 0.642 2.54 0.653 2.564 0.66 2.65 0.675 2.823 0.637 3.219 0.63 3.44 0.625 3.599 0.621 3.738 0.62 3.85 0.619 3.928 0.614 4.013 0.62 4.05 0.622 4.065 0.619 4.067 0.63 4.08 0.689 4.152 1.205 4.429 1.49 4.56 1.752 4.681 1.934 4.753 2.27 4.85 2.846 5.016 3.821 5.2 4.67 5.35 5.619 5.518 6.705 5.677 7.7 5.79 8.658 5.898 9.45 5.971 10.53 6.02 11.972 6.086 14.002 5.924 15.59 6.07 17.023 6.202 18.167 6.593 19.65 6.78 21.422 7.004 23.796 7.08 25.52 7.24 26.882 7.366 28.077 7.56 29.17 7.63 30.058 7.687 30.957 7.67 31.59 7.68 31.999 7.686 32.6 7.69 32.6 7.69 " transform="matrix(1,0,0,1,43.539894694208186,27.74402592142568)"/>
<path style="fill: none; stroke: #000000; mix-blend-mode: source-over; stroke-dasharray: none; stroke-dashoffset: 0; stroke-linecap: round; stroke-linejoin: round; stroke-miterlimit: 4; stroke-opacity: 1; stroke-width: 2;" sketchjs:tool="pencil" d="M0 0 C0 0 0 0 0 0 0 0 0 0 0 0 0 0 1.489 0.125 2.43 0.16 3.732 0.208 5.729 0.194 7.09 0.2 8.15 0.205 8.947 0.123 9.92 0.2 10.969 0.283 12.07 0.565 13.17 0.72 14.299 0.879 15.615 1.028 16.61 1.14 17.372 1.226 18.018 1.246 18.63 1.35 19.151 1.439 19.684 1.627 20.06 1.69 20.301 1.731 20.514 1.735 20.66 1.75 20.745 1.758 20.782 1.764 20.86 1.77 20.97 1.778 21.26 1.79 21.26 1.79 21.26 1.79 21.26 1.79 21.26 1.79 " transform="matrix(1,0,0,1,-1.62008910490077,69.05629809639531)"/>
<path style="fill: none; stroke: #000000; mix-blend-mode: source-over; stroke-dasharray: none; stroke-dashoffset: 0; stroke-linecap: round; stroke-linejoin: round; stroke-miterlimit: 4; stroke-opacity: 1; stroke-width: 2;" sketchjs:tool="pencil" d="M0 0 C0 0 0 0 0 0 0 0 0.112 0.042 0.22 0.06 0.507 0.108 1.302 0.138 1.82 0.16 2.307 0.18 2.767 0.183 3.24 0.19 3.713 0.197 4.123 0.198 4.66 0.2 5.362 0.202 6.168 0.161 7.09 0.2 8.311 0.252 9.997 0.495 11.34 0.56 12.546 0.618 13.587 0.592 14.78 0.6 16.075 0.609 17.391 0.608 18.83 0.61 20.471 0.612 22.361 0.61 24.1 0.61 25.804 0.61 27.44 0.61 29.16 0.61 30.948 0.61 32.807 0.61 34.63 0.61 36.453 0.61 38.316 0.484 40.1 0.61 41.826 0.732 43.387 1.14 45.17 1.33 47.146 1.541 49.605 1.621 51.44 1.78 52.88 1.905 54.152 2.101 55.29 2.17 56.192 2.225 56.894 2.21 57.72 2.22 58.579 2.23 59.509 2.228 60.35 2.23 61.124 2.231 61.896 2.23 62.58 2.23 63.163 2.23 63.679 2.23 64.2 2.23 64.686 2.23 65.281 2.23 65.61 2.23 65.788 2.23 66.02 2.23 66.02 2.23 " transform="matrix(1,0,0,1,17.61846901579587,70.67638720129608)"/>
<path style="fill: none; stroke: #000000; mix-blend-mode: source-over; stroke-dasharray: none; stroke-dashoffset: 0; stroke-linecap: round; stroke-linejoin: round; stroke-miterlimit: 4; stroke-opacity: 1; stroke-width: 2;" sketchjs:tool="pencil" d="M1.02 0 C1.02 0 1.02 0 1.02 0 1.02 0 1.055 0.763 1.02 1.22 0.975 1.812 0.776 2.528 0.71 3.25 0.636 4.066 0.702 4.864 0.63 5.87 0.531 7.245 0.167 9.467 0.08 10.74 0.024 11.558 0.042 12.087 0.03 12.76 0.018 13.433 0.013 14.123 0.01 14.78 0.007 15.405 0.01 15.985 0.01 16.61 0.01 17.267 0.01 17.94 0.01 18.63 0.01 19.355 0.01 20.135 0.01 20.86 0.01 21.55 -0.012 22.162 0.01 22.88 0.035 23.702 0.14 24.809 0.17 25.52 0.191 26.001 0.153 26.312 0.2 26.73 0.252 27.189 0.431 27.751 0.49 28.16 0.534 28.464 0.542 28.639 0.56 28.96 0.586 29.443 0.591 30.389 0.6 30.78 0.604 30.965 0.608 31.03 0.61 31.19 0.613 31.414 0.607 31.777 0.61 32 0.612 32.157 0.606 32.287 0.62 32.4 0.631 32.485 0.67 32.62 0.67 32.62 0.67 32.62 0.67 32.62 0.67 32.62 " transform="matrix(1,0,0,1,7.280441019154738,70.06885378695829)"/>
<path style="fill: none; stroke: #000000; mix-blend-mode: source-over; stroke-dasharray: none; stroke-dashoffset: 0; stroke-linecap: round; stroke-linejoin: round; stroke-miterlimit: 4; stroke-opacity: 1; stroke-width: 2;" sketchjs:tool="pencil" d="M4.05 0 C4.05 0 4.05 0 4.05 0 4.05 0 3.87 1.489 3.73 2.44 3.533 3.785 3.172 5.615 2.94 7.3 2.69 9.112 2.539 11.073 2.3 12.96 2.06 14.853 1.8 16.767 1.5 18.64 1.205 20.483 0.764 22.399 0.52 24.11 0.306 25.609 0.152 27.03 0.07 28.35 -0.002 29.501 -0.014 30.611 0.01 31.59 0.03 32.403 0.093 33.221 0.16 33.82 0.206 34.227 0.29 34.578 0.32 34.84 0.339 35.004 0.35 35.24 0.35 35.24 " transform="matrix(1,0,0,1,25.108690722047495,72.29647630619685)"/>
<path style="fill: none; stroke: #000000; mix-blend-mode: source-over; stroke-dasharray: none; stroke-dashoffset: 0; stroke-linecap: round; stroke-linejoin: round; stroke-miterlimit: 4; stroke-opacity: 1; stroke-width: 2;" sketchjs:tool="pencil" d="M0.48 0 C0.48 0 0.509 0.608 0.48 1.01 0.437 1.611 0.23 2.383 0.16 3.25 0.064 4.437 0.095 6.013 0.08 7.49 0.063 9.104 0.072 10.839 0.07 12.56 0.068 14.346 0.07 16.136 0.07 18.02 0.07 20.04 0.07 22.036 0.07 24.3 0.07 26.966 0.07 30.557 0.07 33.01 0.07 34.804 -0.095 36.343 0.07 37.67 0.196 38.686 0.604 39.92 0.74 40.32 0.781 40.441 0.84 40.55 0.84 40.55 0.84 40.55 0.84 40.55 0.84 40.55 " transform="matrix(1,0,0,1,44.4798632952376,73.51154313487243)"/>
<path style="fill: none; stroke: #000000; mix-blend-mode: source-over; stroke-dasharray: none; stroke-dashoffset: 0; stroke-linecap: round; stroke-linejoin: round; stroke-miterlimit: 4; stroke-opacity: 1; stroke-width: 2;" sketchjs:tool="pencil" d="M0 0 C0 0 0 0 0 0 0 0 0.046 0.347 0.1 0.62 0.208 1.165 0.436 2.12 0.67 3.05 0.988 4.315 1.587 5.909 1.87 7.51 2.189 9.317 2.17 11.385 2.38 13.37 2.597 15.429 3.025 17.71 3.16 19.65 3.275 21.313 3.217 22.803 3.23 24.3 3.242 25.697 3.238 27.017 3.24 28.35 3.242 29.65 3.24 31.064 3.24 32.2 3.24 33.103 3.21 33.857 3.24 34.63 3.268 35.338 3.379 36.337 3.4 36.66 3.407 36.761 3.41 36.86 3.41 36.86 " transform="matrix(1,0,0,1,59.94329688132848,71.68894289185906)"/>
<path style="fill: none; stroke: #000000; mix-blend-mode: source-over; stroke-dasharray: none; stroke-dashoffset: 0; stroke-linecap: round; stroke-linejoin: round; stroke-miterlimit: 4; stroke-opacity: 1; stroke-width: 2;" sketchjs:tool="pencil" d="M0 0 L0.01 0.01 " transform="matrix(1,0,0,1,27.7440259,7.6954232)"/>
<path style="fill: none; stroke: #000000; mix-blend-mode: source-over; stroke-dasharray: none; stroke-dashoffset: 0; stroke-linecap: round; stroke-linejoin: round; stroke-miterlimit: 4; stroke-opacity: 1; stroke-width: 2;" sketchjs:tool="pencil" d="M0 0 L0.01 0.01 " transform="matrix(1,0,0,1,36.654515998379914,6.277845281490483)"/>
<path style="fill: none; stroke: #000000; mix-blend-mode: source-over; stroke-dasharray: none; stroke-dashoffset: 0; stroke-linecap: round; stroke-linejoin: round; stroke-miterlimit: 4; stroke-opacity: 1; stroke-width: 2;" sketchjs:tool="pencil" d="M2.03 0 C2.03 0 2.03 0 2.03 0 2.03 0 2.03 0 2.03 0 2.03 0 1.939 0.149 1.9 0.27 1.83 0.487 1.77 0.883 1.73 1.22 1.685 1.598 1.675 2.045 1.66 2.43 1.646 2.782 1.645 3.087 1.64 3.44 1.635 3.827 1.632 4.254 1.63 4.66 1.628 5.064 1.63 5.633 1.63 5.87 1.63 5.969 1.63 5.992 1.63 6.08 1.63 6.229 1.632 6.499 1.63 6.68 1.628 6.83 1.635 6.954 1.62 7.09 1.605 7.227 1.562 7.364 1.54 7.5 1.519 7.634 1.502 7.766 1.49 7.9 1.478 8.033 1.49 8.186 1.47 8.3 1.455 8.388 1.422 8.435 1.4 8.53 1.366 8.68 1.332 8.942 1.31 9.12 1.292 9.266 1.278 9.409 1.27 9.52 1.264 9.598 1.272 9.652 1.26 9.72 1.247 9.795 1.211 9.855 1.19 9.95 1.157 10.1 1.131 10.362 1.11 10.54 1.093 10.686 1.093 10.793 1.07 10.94 1.041 11.125 0.974 11.328 0.94 11.56 0.898 11.853 0.876 12.269 0.86 12.56 0.847 12.785 0.845 12.979 0.84 13.16 0.836 13.31 0.846 13.433 0.83 13.57 0.813 13.71 0.776 13.827 0.74 13.99 0.689 14.216 0.594 14.55 0.55 14.8 0.513 15.011 0.511 15.158 0.48 15.39 0.436 15.724 0.364 16.362 0.3 16.61 0.271 16.723 0.237 16.751 0.21 16.85 0.169 17 0.134 17.255 0.11 17.43 0.09 17.572 0.081 17.675 0.07 17.82 0.056 18.001 0.047 18.282 0.04 18.43 0.036 18.515 0.033 18.535 0.03 18.63 0.022 18.864 0.013 19.485 0.01 19.85 0.008 20.148 0.01 20.39 0.01 20.66 0.01 20.93 0.01 21.22 0.01 21.47 0.01 21.685 0.011 21.855 0.01 22.07 0.008 22.32 0.001 22.656 0 22.88 -0.001 23.04 0 23.13 0 23.29 0 23.514 0 23.877 0 24.1 0 24.257 0 24.366 0 24.5 0 24.636 -0.011 24.743 0 24.91 0.017 25.174 0.078 25.61 0.13 25.93 0.176 26.216 0.237 26.408 0.29 26.74 0.374 27.261 0.461 28.146 0.54 28.76 0.606 29.275 0.661 29.772 0.73 30.18 0.783 30.492 0.865 30.776 0.9 31 0.924 31.153 0.918 31.23 0.94 31.39 0.976 31.65 1.082 32.114 1.12 32.41 1.149 32.636 1.143 32.795 1.17 33.01 1.202 33.263 1.257 33.558 1.31 33.83 1.363 34.101 1.448 34.417 1.49 34.64 1.519 34.796 1.535 34.906 1.55 35.04 1.565 35.173 1.572 35.306 1.58 35.44 1.588 35.576 1.597 35.738 1.6 35.85 1.602 35.928 1.598 35.983 1.6 36.05 1.602 36.117 1.608 36.183 1.61 36.25 1.612 36.317 1.61 36.45 1.61 36.45 " transform="matrix(1,0,0,1,-0.20704663405535562,32.1992709599028)"/>
<path style="fill: none; stroke: #000000; mix-blend-mode: source-over; stroke-dasharray: none; stroke-dashoffset: 0; stroke-linecap: round; stroke-linejoin: round; stroke-miterlimit: 4; stroke-opacity: 1; stroke-width: 2;" sketchjs:tool="pencil" d="M0.32 0 C0.32 0 0.32 0 0.32 0 0.32 0 0.451 0.255 0.5 0.45 0.584 0.78 0.625 1.337 0.66 1.83 0.7 2.394 0.699 2.966 0.71 3.65 0.724 4.532 0.717 5.637 0.72 6.68 0.723 7.793 0.728 8.838 0.73 10.13 0.732 11.786 0.73 14.119 0.73 15.8 0.73 17.147 0.73 18.325 0.73 19.44 0.73 20.388 0.73 21.25 0.73 22.07 0.73 22.79 0.73 23.54 0.73 24.1 0.73 24.495 0.73 24.792 0.73 25.11 0.73 25.395 0.73 25.65 0.73 25.92 0.73 26.19 0.73 26.479 0.73 26.73 0.73 26.948 0.73 27.158 0.73 27.34 0.73 27.487 0.73 27.576 0.73 27.74 0.73 28.002 0.752 28.422 0.73 28.76 0.708 29.098 0.626 29.508 0.6 29.77 0.583 29.937 0.591 30.043 0.57 30.18 0.548 30.32 0.497 30.462 0.47 30.6 0.444 30.732 0.439 30.846 0.41 30.99 0.374 31.174 0.289 31.462 0.26 31.61 0.244 31.691 0.24 31.736 0.23 31.8 0.22 31.866 0.217 31.932 0.2 32 0.182 32.075 0.142 32.157 0.12 32.23 0.1 32.296 0.085 32.356 0.07 32.42 0.055 32.486 0.046 32.574 0.03 32.62 0.021 32.647 0 32.68 0 32.68 " transform="matrix(1,0,0,1,12.233790287367833,32.1992709599028)"/>
<path style="fill: none; stroke: #000000; mix-blend-mode: source-over; stroke-dasharray: none; stroke-dashoffset: 0; stroke-linecap: round; stroke-linejoin: round; stroke-miterlimit: 4; stroke-opacity: 1; stroke-width: 2;" sketchjs:tool="pencil" d="M1.6 0 C1.6 0 1.6 0 1.6 0 1.6 0 1.51 0.996 1.46 1.62 1.392 2.475 1.285 3.55 1.24 4.66 1.185 6.002 1.265 7.611 1.2 9.11 1.134 10.647 0.999 12.236 0.84 13.77 0.684 15.275 0.397 16.651 0.26 18.23 0.106 20.004 -0.045 21.893 0.01 23.9 0.072 26.18 0.455 29.327 0.73 31.19 0.903 32.361 1.128 33.05 1.29 34.03 1.462 35.072 1.603 36.344 1.72 37.27 1.808 37.963 1.896 38.521 1.94 39.09 1.979 39.589 1.936 40.015 1.99 40.5 2.049 41.026 2.252 41.848 2.3 42.13 2.317 42.229 2.321 42.252 2.33 42.33 2.342 42.44 2.352 42.596 2.36 42.73 2.368 42.866 2.374 43.028 2.38 43.14 2.384 43.219 2.39 43.34 2.39 43.34 2.39 43.34 2.39 43.34 2.39 43.34 " transform="matrix(1,0,0,1,54.6939933762019,34.22438234102876)"/>
<path style="fill: none; stroke: #000000; mix-blend-mode: source-over; stroke-dasharray: none; stroke-dashoffset: 0; stroke-linecap: round; stroke-linejoin: round; stroke-miterlimit: 4; stroke-opacity: 1; stroke-width: 2;" sketchjs:tool="pencil" d="M1.22 0 C1.22 0 1.22 0 1.22 0 1.22 0 0.993 0.937 0.93 1.43 0.863 1.948 0.881 2.487 0.84 3.04 0.796 3.628 0.708 4.166 0.67 4.86 0.62 5.785 0.656 6.988 0.62 8.1 0.582 9.281 0.477 10.369 0.44 11.75 0.391 13.559 0.414 16.504 0.41 18.02 0.408 18.883 0.41 19.266 0.41 20.05 0.41 21.13 0.41 22.89 0.41 23.9 0.41 24.555 0.41 25.161 0.41 25.52 0.41 25.698 0.41 25.786 0.41 25.92 0.41 26.056 0.41 26.194 0.41 26.33 0.41 26.464 0.41 26.596 0.41 26.73 0.41 26.866 0.422 26.981 0.41 27.14 0.393 27.365 0.312 27.771 0.29 27.95 0.279 28.039 0.277 28.071 0.27 28.15 0.26 28.262 0.248 28.401 0.24 28.56 0.229 28.782 0.225 29.077 0.22 29.36 0.214 29.679 0.211 30.085 0.21 30.38 0.209 30.606 0.226 30.765 0.21 30.98 0.192 31.233 0.118 31.527 0.09 31.8 0.062 32.07 0.053 32.325 0.04 32.61 0.025 32.928 0.014 33.36 0.01 33.62 0.008 33.784 0.01 33.886 0.01 34.02 0.01 34.156 0.012 34.294 0.01 34.43 0.008 34.564 -0.009 34.773 0 34.83 0.002 34.846 0.006 34.844 0.01 34.86 0.025 34.916 0.071 35.141 0.09 35.25 0.104 35.327 0.111 35.372 0.12 35.45 0.132 35.56 0.142 35.717 0.15 35.85 0.158 35.983 0.17 36.25 0.17 36.25 " transform="matrix(1,0,0,1,63.38528495486451,34.02187120291616)"/>
<path style="fill: none; stroke: #000000; mix-blend-mode: source-over; stroke-dasharray: none; stroke-dashoffset: 0; stroke-linecap: round; stroke-linejoin: round; stroke-miterlimit: 4; stroke-opacity: 1; stroke-width: 2;" sketchjs:tool="pencil" d="M0 0.52 C0 0.52 0 0.52 0 0.52 0 0.52 0.533 0.455 0.82 0.41 1.14 0.36 1.453 0.29 1.83 0.23 2.306 0.154 3.45 0 3.45 0 " transform="matrix(1,0,0,1,58.32320777642771,71.97538057868714)"/>
<path style="fill: none; stroke: #000000; mix-blend-mode: source-over; stroke-dasharray: none; stroke-dashoffset: 0; stroke-linecap: round; stroke-linejoin: round; stroke-miterlimit: 4; stroke-opacity: 1; stroke-width: 2;" sketchjs:tool="pencil" d="M0 0 C0 0 0 0 0 0 0 0 0 0 0 0 0 0 0 0 0 0 0 0 0.048 0.062 0.07 0.1 0.096 0.146 0.11 0.19 0.14 0.26 0.197 0.394 0.286 0.67 0.38 0.85 0.468 1.017 0.553 1.128 0.68 1.31 0.876 1.59 1.135 2.055 1.46 2.35 1.806 2.665 2.347 2.876 2.72 3.12 3.029 3.322 3.364 3.559 3.55 3.7 3.649 3.775 3.668 3.805 3.77 3.88 3.979 4.033 4.414 4.302 4.76 4.53 5.143 4.783 5.586 5.059 5.97 5.33 6.334 5.586 6.753 5.962 7.01 6.11 7.145 6.188 7.208 6.182 7.34 6.25 7.561 6.364 7.931 6.608 8.19 6.77 8.411 6.908 8.658 7.081 8.8 7.16 8.872 7.2 8.901 7.215 8.97 7.24 9.068 7.276 9.237 7.315 9.34 7.34 9.413 7.358 9.439 7.368 9.53 7.38 9.757 7.41 10.329 7.477 10.73 7.45 11.139 7.422 11.524 7.324 11.96 7.21 12.471 7.076 13.083 6.929 13.6 6.67 14.132 6.404 14.626 5.947 15.1 5.62 15.524 5.328 15.95 5.079 16.31 4.8 16.627 4.554 16.931 4.231 17.16 4.05 17.305 3.936 17.384 3.896 17.53 3.79 17.749 3.632 18.118 3.339 18.34 3.19 18.488 3.091 18.571 3.058 18.72 2.96 18.946 2.812 19.294 2.569 19.55 2.37 19.784 2.188 20.044 1.96 20.2 1.82 20.291 1.738 20.338 1.698 20.41 1.62 20.498 1.524 20.596 1.379 20.68 1.28 20.748 1.2 20.813 1.124 20.87 1.07 20.91 1.032 20.98 0.98 20.98 0.98 " transform="matrix(1,0,0,1,22.883758606723372,31.591737545565007)"/>
<path style="fill: none; stroke: #000000; mix-blend-mode: source-over; stroke-dasharray: none; stroke-dashoffset: 0; stroke-linecap: round; stroke-linejoin: round; stroke-miterlimit: 4; stroke-opacity: 1; stroke-width: 2;" sketchjs:tool="pencil" d="M0 0.49 C0 0.49 0 0.49 0 0.49 0 0.49 0.034 0.625 0.06 0.71 0.096 0.828 0.149 1.011 0.2 1.13 0.24 1.223 0.297 1.296 0.33 1.37 0.357 1.43 0.365 1.462 0.39 1.54 0.445 1.708 0.52 2.06 0.63 2.34 0.761 2.671 0.986 3.089 1.15 3.39 1.279 3.627 1.376 3.822 1.52 4.01 1.661 4.194 1.866 4.355 2 4.51 2.107 4.634 2.202 4.74 2.27 4.86 2.331 4.967 2.34 5.074 2.4 5.19 2.474 5.334 2.581 5.476 2.7 5.65 2.862 5.886 3.14 6.245 3.29 6.47 3.391 6.622 3.465 6.778 3.53 6.86 3.564 6.903 3.591 6.917 3.62 6.95 3.651 6.986 3.675 7.023 3.71 7.07 3.758 7.134 3.81 7.213 3.88 7.3 3.979 7.423 4.118 7.575 4.26 7.73 4.434 7.919 4.705 8.198 4.85 8.35 4.934 8.439 4.99 8.506 5.05 8.56 5.093 8.599 5.123 8.615 5.17 8.65 5.234 8.698 5.327 8.76 5.4 8.82 5.473 8.88 5.545 8.963 5.61 9.01 5.659 9.046 5.698 9.057 5.75 9.09 5.818 9.133 5.923 9.2 5.98 9.25 6.019 9.285 6.035 9.319 6.07 9.35 6.108 9.383 6.152 9.404 6.2 9.44 6.265 9.489 6.365 9.565 6.42 9.62 6.459 9.659 6.51 9.73 6.51 9.73 6.51 9.73 6.51 9.73 6.51 9.73 6.51 9.73 6.643 9.761 6.69 9.75 6.724 9.742 6.738 9.717 6.77 9.7 6.814 9.677 6.871 9.666 6.93 9.63 7.018 9.576 7.123 9.473 7.23 9.38 7.359 9.268 7.535 9.107 7.65 9 7.733 8.923 7.779 8.886 7.86 8.8 7.987 8.665 8.216 8.353 8.32 8.25 8.366 8.204 8.387 8.196 8.43 8.16 8.491 8.109 8.595 8.029 8.65 7.97 8.689 7.928 8.706 7.885 8.74 7.85 8.773 7.816 8.801 7.796 8.85 7.76 8.936 7.696 9.12 7.565 9.22 7.51 9.282 7.476 9.323 7.471 9.38 7.44 9.451 7.402 9.539 7.328 9.61 7.29 9.667 7.259 9.715 7.241 9.77 7.22 9.828 7.198 9.903 7.182 9.95 7.16 9.983 7.144 9.993 7.128 10.03 7.11 10.103 7.074 10.276 6.997 10.37 6.98 10.432 6.969 10.474 6.98 10.53 6.98 10.593 6.98 10.66 6.964 10.73 6.98 10.815 6.999 10.92 7.077 11 7.11 11.062 7.136 11.125 7.148 11.17 7.17 11.203 7.186 11.218 7.202 11.25 7.22 11.294 7.245 11.353 7.267 11.41 7.3 11.481 7.341 11.564 7.397 11.64 7.45 11.717 7.504 11.8 7.576 11.87 7.62 11.924 7.654 11.965 7.668 12.02 7.7 12.089 7.741 12.179 7.809 12.25 7.85 12.307 7.883 12.353 7.898 12.41 7.93 12.48 7.969 12.545 8.011 12.64 8.07 12.797 8.167 13.119 8.381 13.26 8.46 13.329 8.499 13.362 8.509 13.42 8.54 13.492 8.579 13.57 8.628 13.66 8.68 13.774 8.745 13.938 8.83 14.05 8.9 14.138 8.955 14.184 8.995 14.28 9.06 14.434 9.164 14.78 9.366 14.89 9.46 14.937 9.501 14.946 9.529 14.98 9.56 15.016 9.593 15.053 9.608 15.1 9.65 15.178 9.72 15.304 9.866 15.39 9.96 15.46 10.036 15.52 10.117 15.58 10.17 15.625 10.21 15.655 10.251 15.71 10.26 15.789 10.273 15.904 10.238 16.02 10.17 16.231 10.046 16.563 9.679 16.78 9.42 16.977 9.184 17.146 8.923 17.28 8.69 17.393 8.493 17.448 8.312 17.55 8.12 17.66 7.913 17.779 7.712 17.92 7.49 18.086 7.23 18.345 6.887 18.49 6.66 18.587 6.508 18.656 6.348 18.72 6.27 18.753 6.23 18.775 6.224 18.81 6.19 18.864 6.137 18.943 6.049 19.01 5.98 19.076 5.912 19.141 5.859 19.21 5.78 19.296 5.682 19.398 5.533 19.48 5.43 19.545 5.348 19.597 5.294 19.66 5.21 19.739 5.104 19.833 4.946 19.91 4.84 19.971 4.756 20.021 4.693 20.08 4.62 20.141 4.546 20.223 4.469 20.27 4.4 20.306 4.347 20.317 4.304 20.35 4.25 20.393 4.18 20.444 4.107 20.51 4.02 20.604 3.897 20.746 3.747 20.87 3.59 21.012 3.411 21.168 3.214 21.31 3 21.466 2.764 21.613 2.472 21.76 2.23 21.893 2.011 22.019 1.831 22.15 1.61 22.295 1.364 22.469 1.066 22.59 0.82 22.691 0.614 22.764 0.39 22.84 0.24 22.89 0.141 22.98 0 22.98 0 " transform="matrix(1,0,0,1,22.47873633049818,33.331066905783324)"/>
<path style="fill: none; stroke: #000000; mix-blend-mode: source-over; stroke-dasharray: none; stroke-dashoffset: 0; stroke-linecap: round; stroke-linejoin: round; stroke-miterlimit: 4; stroke-opacity: 1; stroke-width: 2;" sketchjs:tool="pencil" d="M0.01 0.94 C0.01 0.94 0.01 0.94 0.01 0.94 0.01 0.94 0.01 1.304 0.01 1.55 0.01 1.925 0.01 2.481 0.01 2.97 0.01 3.492 0.01 4.05 0.01 4.59 0.01 5.13 0.01 5.688 0.01 6.21 0.01 6.699 0.01 7.176 0.01 7.63 0.01 8.049 -0.022 8.542 0.01 8.84 0.029 9.017 0.064 9.121 0.1 9.26 0.137 9.401 0.182 9.561 0.23 9.68 0.267 9.773 0.296 9.853 0.35 9.92 0.403 9.986 0.457 10.031 0.55 10.08 0.708 10.163 1.024 10.259 1.25 10.29 1.453 10.318 1.609 10.296 1.84 10.28 2.174 10.257 2.761 10.191 3.06 10.13 3.238 10.094 3.327 10.054 3.48 10.01 3.665 9.956 3.888 9.91 4.09 9.83 4.305 9.745 4.615 9.582 4.73 9.51 4.776 9.481 4.784 9.47 4.82 9.44 4.876 9.393 4.97 9.325 5.03 9.25 5.094 9.17 5.144 9.083 5.19 8.97 5.25 8.821 5.295 8.608 5.33 8.42 5.366 8.228 5.383 8.009 5.4 7.83 5.414 7.681 5.422 7.556 5.43 7.42 5.438 7.286 5.445 7.154 5.45 7.02 5.455 6.884 5.444 6.746 5.46 6.61 5.477 6.473 5.525 6.336 5.55 6.2 5.575 6.066 5.594 5.964 5.61 5.8 5.635 5.54 5.617 5.108 5.65 4.79 5.68 4.501 5.738 4.222 5.79 3.97 5.836 3.751 5.904 3.543 5.94 3.36 5.969 3.213 5.972 3.074 6 2.96 6.022 2.872 6.058 2.803 6.08 2.73 6.1 2.664 6.115 2.604 6.13 2.54 6.145 2.477 6.157 2.425 6.17 2.35 6.188 2.242 6.263 2.101 6.22 1.95 6.146 1.689 5.663 1.185 5.46 1.01 5.357 0.921 5.297 0.924 5.19 0.85 5.015 0.729 4.717 0.433 4.53 0.32 4.41 0.247 4.302 0.215 4.21 0.18 4.142 0.154 4.102 0.138 4.03 0.12 3.927 0.094 3.779 0.07 3.65 0.05 3.519 0.03 3.362 -0.001 3.25 0 3.169 0.001 3.128 0.02 3.04 0.03 2.892 0.047 2.621 0.049 2.44 0.08 2.286 0.106 2.1 0.157 2.02 0.19 1.986 0.204 1.983 0.215 1.95 0.23 1.879 0.262 1.7 0.323 1.6 0.35 1.528 0.37 1.485 0.376 1.41 0.39 1.303 0.409 1.151 0.421 1.02 0.45 0.882 0.48 0.6 0.57 0.6 0.57 " transform="matrix(1,0,0,1,41.09664073234273,46.645327838271754)"/>
<path style="fill: none; stroke: #000000; mix-blend-mode: source-over; stroke-dasharray: none; stroke-dashoffset: 0; stroke-linecap: round; stroke-linejoin: round; stroke-miterlimit: 4; stroke-opacity: 1; stroke-width: 2;" sketchjs:tool="pencil" d="M0 0.39 C0 0.39 0 0.39 0 0.39 0 0.39 0.014 0.384 0.03 0.38 0.086 0.365 0.245 0.322 0.42 0.3 0.773 0.255 1.585 0.237 2.03 0.22 2.346 0.208 2.556 0.223 2.84 0.2 3.159 0.174 3.59 0.088 3.85 0.06 4.013 0.043 4.138 0.037 4.25 0.03 4.331 0.025 4.379 0.023 4.46 0.02 4.572 0.016 4.75 0.014 4.86 0.01 4.938 0.007 5.06 0 5.06 0 " transform="matrix(1,0,0,1,30.98420413122722,18.849864539136)"/>
<path style="fill: none; stroke: #000000; mix-blend-mode: source-over; stroke-dasharray: none; stroke-dashoffset: 0; stroke-linecap: round; stroke-linejoin: round; stroke-miterlimit: 4; stroke-opacity: 1; stroke-width: 2;" sketchjs:tool="pencil" d="M2.52 0.19 C2.52 0.19 2.52 0.19 2.52 0.19 2.52 0.19 2.371 0.155 2.3 0.14 2.234 0.126 2.185 0.112 2.11 0.1 2.002 0.083 1.82 0.071 1.71 0.06 1.632 0.052 1.588 0.046 1.51 0.04 1.4 0.032 1.257 0.025 1.11 0.02 0.928 0.014 0.648 0.015 0.5 0.01 0.415 0.007 0.337 -0.005 0.3 0 0.285 0.002 0.282 0.004 0.27 0.01 0.249 0.02 0.216 0.038 0.19 0.06 0.159 0.086 0.118 0.129 0.1 0.16 0.088 0.181 0.087 0.194 0.08 0.22 0.068 0.265 0.053 0.346 0.04 0.41 0.026 0.476 0.003 0.544 0 0.61 -0.003 0.674 0.006 0.758 0.02 0.8 0.028 0.823 0.04 0.827 0.05 0.85 0.069 0.891 0.093 0.969 0.11 1.03 0.127 1.092 0.113 1.161 0.15 1.22 0.2 1.3 0.351 1.387 0.43 1.44 0.483 1.476 0.511 1.494 0.57 1.52 0.661 1.559 0.829 1.601 0.93 1.63 1.003 1.651 1.044 1.665 1.12 1.68 1.228 1.701 1.387 1.717 1.52 1.73 1.653 1.743 1.786 1.765 1.92 1.76 2.056 1.755 2.26 1.725 2.33 1.7 2.356 1.691 2.38 1.67 2.38 1.67 " transform="matrix(1,0,0,1,24.81509673276919,6.894820722598151)"/>
<path style="fill: none; stroke: #000000; mix-blend-mode: source-over; stroke-dasharray: none; stroke-dashoffset: 0; stroke-linecap: round; stroke-linejoin: round; stroke-miterlimit: 4; stroke-opacity: 1; stroke-width: 2;" sketchjs:tool="pencil" d="M0.9 0 C0.9 0 0.9 0 0.9 0 0.9 0 0.9 0 0.9 0 0.9 0 0.9 0 0.9 0 0.9 0 0.526 0.622 0.39 0.89 0.283 1.101 0.19 1.296 0.13 1.47 0.084 1.605 0.063 1.735 0.04 1.84 0.023 1.917 0 2.04 0 2.04 0 2.04 0 2.04 0 2.04 0 2.04 0.113 2.103 0.17 2.13 0.226 2.156 0.271 2.185 0.34 2.2 0.436 2.22 0.577 2.207 0.7 2.21 0.83 2.213 0.99 2.219 1.1 2.22 1.178 2.221 1.222 2.227 1.3 2.22 1.415 2.209 1.644 2.166 1.72 2.14 1.75 2.13 1.759 2.124 1.78 2.11 1.808 2.091 1.84 2.068 1.87 2.03 1.919 1.968 1.978 1.851 2.02 1.75 2.066 1.64 2.095 1.462 2.13 1.39 2.147 1.356 2.163 1.349 2.18 1.32 2.205 1.278 2.235 1.226 2.26 1.16 2.297 1.064 2.36 0.79 2.36 0.79 2.36 0.79 2.36 0.79 2.36 0.79 2.36 0.79 2.276 0.734 2.23 0.71 2.18 0.684 2.07 0.64 2.07 0.64 " transform="matrix(1,0,0,1,36.36346943780169,6.075334143377886)"/>
</svg>